<svg xmlns="http://www.w3.org/2000/svg" width="499" height="755" viewBox="0 0 499 755">
  <g id="Groupe_23" data-name="Groupe 23" transform="translate(1527 375) rotate(90)">
    <g id="logoTrame" transform="translate(-375 1028)">
      <rect id="Rectangle_4" data-name="Rectangle 4" width="67" height="67" rx="10" transform="translate(583 258) rotate(90)" fill="#ffffff" opacity="1"/>
      <rect id="Rectangle_5" data-name="Rectangle 5" width="67" height="67" rx="10" transform="translate(583 344) rotate(90)" fill="#ffffff" opacity="1"/>
      <rect id="Rectangle_6" data-name="Rectangle 6" width="67" height="67" rx="10" transform="translate(497 344) rotate(90)" fill="#ffffff" opacity="1"/>
      <rect id="Rectangle_7" data-name="Rectangle 7" width="67" height="67" rx="10" transform="translate(497 258) rotate(90)" fill="#ffffff" opacity="1"/>
      <rect id="Rectangle_8" data-name="Rectangle 8" width="67" height="67" rx="33.5" transform="translate(583 430) rotate(90)" fill="#ffffff" opacity="1"/>
      <rect id="Rectangle_9" data-name="Rectangle 9" width="67" height="67" rx="33.5" transform="translate(669 344) rotate(90)" fill="#ffffff" opacity="1"/>
      <rect id="Rectangle_10" data-name="Rectangle 10" width="67" height="67" rx="33.5" transform="translate(755 344) rotate(90)" fill="#ffffff" opacity="1"/>
      <rect id="Rectangle_11" data-name="Rectangle 11" width="67" height="67" rx="10" transform="translate(669 258) rotate(90)" fill="#ffffff" opacity="1"/>
      <rect id="Rectangle_12" data-name="Rectangle 12" width="67" height="67" rx="10" transform="translate(411 258) rotate(90)" fill="#ffffff" opacity="1"/>
      <rect id="Rectangle_13" data-name="Rectangle 13" width="67" height="67" rx="33.5" transform="translate(325 430) rotate(90)" fill="#ffffff" opacity="1"/>
      <rect id="Rectangle_14" data-name="Rectangle 14" width="67" height="67" rx="33.5" transform="translate(239 344) rotate(90)" fill="#ffffff" opacity="1"/>
      <rect id="Rectangle_15" data-name="Rectangle 15" width="67" height="67" rx="10" transform="translate(497 172) rotate(90)" fill="#ffffff" opacity="1"/>
      <rect id="Rectangle_16" data-name="Rectangle 16" width="67" height="67" rx="10" transform="translate(411 172) rotate(90)" fill="#ffffff" opacity="1"/>
      <rect id="Rectangle_17" data-name="Rectangle 17" width="67" height="67" rx="10" transform="translate(583 172) rotate(90)" fill="#ffffff" opacity="1"/>
      <rect id="Rectangle_18" data-name="Rectangle 18" width="67" height="67" rx="10" transform="translate(325 172) rotate(90)" fill="#ffffff" opacity="1"/>
      <rect id="Rectangle_19" data-name="Rectangle 19" width="67" height="67" rx="33.5" transform="translate(669 172) rotate(90)" fill="#ffffff" opacity="1"/>
      <rect id="Rectangle_20" data-name="Rectangle 20" width="67" height="67" rx="33.5" transform="translate(755 172) rotate(90)" fill="#ffffff" opacity="1"/>
      <rect id="Rectangle_21" data-name="Rectangle 21" width="67" height="67" rx="10" transform="translate(411 86) rotate(90)" fill="#ffffff" opacity="1"/>
      <rect id="Rectangle_22" data-name="Rectangle 22" width="67" height="67" rx="10" transform="translate(325 86) rotate(90)" fill="#ffffff" opacity="1"/>
      <rect id="Rectangle_23" data-name="Rectangle 23" width="67" height="67" rx="10" transform="translate(497 86) rotate(90)" fill="#ffffff" opacity="1"/>
      <rect id="Rectangle_24" data-name="Rectangle 24" width="67" height="67" rx="10" transform="translate(239 86) rotate(90)" fill="#ffffff" opacity="1"/>
      <rect id="Rectangle_25" data-name="Rectangle 25" width="67" height="67" rx="10" transform="translate(411) rotate(90)" fill="#ffffff" opacity="1"/>
      <rect id="Rectangle_26" data-name="Rectangle 26" width="67" height="67" rx="10" transform="translate(325) rotate(90)" fill="#ffffff" opacity="1"/>
      <rect id="Rectangle_27" data-name="Rectangle 27" width="67" height="67" rx="10" transform="translate(497) rotate(90)" fill="#ffffff" opacity="1"/>
      <rect id="Rectangle_28" data-name="Rectangle 28" width="67" height="67" rx="10" transform="translate(239) rotate(90)" fill="#ffffff" opacity="1"/>
      <rect id="Rectangle_29" data-name="Rectangle 29" width="67" height="67" rx="10" transform="translate(325 258) rotate(90)" fill="#ffffff" opacity="1"/>
      <rect id="Rectangle_30" data-name="Rectangle 30" width="67" height="67" rx="10" transform="translate(239 258) rotate(90)" fill="#ffffff" opacity="1"/>
      <rect id="Rectangle_31" data-name="Rectangle 31" width="67" height="67" rx="10" transform="translate(239 172) rotate(90)" fill="#ffffff" opacity="1"/>
      <rect id="Rectangle_32" data-name="Rectangle 32" width="67" height="67" rx="10" transform="translate(153 172) rotate(90)" fill="#ffffff" opacity="1"/>
      <rect id="Rectangle_33" data-name="Rectangle 33" width="67" height="67" rx="10" transform="translate(153 86) rotate(90)" fill="#ffffff" opacity="1"/>
      <rect id="Rectangle_35" data-name="Rectangle 35" width="67" height="67" rx="10" transform="translate(153) rotate(90)" fill="#ffffff" opacity="1"/>
      <rect id="Rectangle_37" data-name="Rectangle 37" width="67" height="67" rx="33.5" transform="translate(669 430) rotate(90)" fill="#ffffff" opacity="1"/>
      <rect id="Rectangle_38" data-name="Rectangle 38" width="67" height="67" rx="33.5" transform="translate(497 430) rotate(90)" fill="#ffffff" opacity="1"/>
      <rect id="Rectangle_39" data-name="Rectangle 39" width="67" height="67" rx="10" transform="translate(411 432) rotate(90)" fill="#ffffff" opacity="1"/>
      <rect id="Rectangle_40" data-name="Rectangle 40" width="67" height="67" rx="10" transform="translate(411 346) rotate(90)" fill="#ffffff" opacity="1"/>
      <rect id="Rectangle_41" data-name="Rectangle 41" width="67" height="67" rx="10" transform="translate(325 344) rotate(90)" fill="#ffffff" opacity="1"/>
      <rect id="Rectangle_42" data-name="Rectangle 42" width="67" height="67" rx="10" transform="translate(153 258) rotate(90)" fill="#ffffff" opacity="1"/>
      <rect id="Rectangle_43" data-name="Rectangle 43" width="67" height="67" rx="10" transform="translate(153 344) rotate(90)" fill="#ffffff" opacity="1"/>
      <rect id="Rectangle_44" data-name="Rectangle 44" width="67" height="67" rx="33.5" transform="translate(153 430) rotate(90)" fill="#ffffff" opacity="1"/>
      <rect id="Rectangle_34" data-name="Rectangle 34" width="67" height="67" rx="10" transform="translate(67 86) rotate(90)" fill="#ffffff" opacity="1"/>
      <rect id="Rectangle_36" data-name="Rectangle 36" width="67" height="67" rx="10" transform="translate(67) rotate(90)" fill="#ffffff" opacity="1"/>
    </g>
  </g>
</svg>
